<svg xmlns="http://www.w3.org/2000/svg" xml:space="preserve" viewBox="0 0 126.584 126.583"><path fill="#cf001d" d="M63.293 13.688a49.377 49.377 0 0 0-28.998 9.354 49.29 49.29 0 0 0-13.91 15.341 49.308 49.308 0 0 0-6.5 20.458l-.008.08a49.41 49.41 0 0 0 1.457 17.09c4.56 17.238 18.167 30.797 35.432 35.289a49.394 49.394 0 0 0 17.582 1.341 49.302 49.302 0 0 0 19.598-6.296 49.295 49.295 0 0 0 15.634-14.109 49.372 49.372 0 0 0 9.316-28.944c0-27.396-22.209-49.604-49.603-49.604zM10 63.292C10 33.859 33.86 10 63.293 10c29.432 0 53.291 23.859 53.291 53.292s-23.86 53.291-53.291 53.291C33.86 116.583 10 92.725 10 63.292zm46.034 0a7.258 7.258 0 0 0 7.259 7.258 7.259 7.259 0 1 0-7.26-7.258zm14.827-13.1a15.11 15.11 0 0 1 7.555 13.1h9.678c0-13.698-11.103-24.8-24.801-24.8v1.205c9.767.003 7.568 10.495 7.568 10.495zm6.05-10.48c8.136 4.707 13.603 13.504 13.603 23.58h9.678c0-20.38-16.52-36.9-36.9-36.9v1.21c15.124 0 13.62 12.11 13.62 12.11zM48.165 63.288a15.11 15.11 0 0 1 7.567-13.093l-4.839-8.38C39.03 48.661 34.966 63.827 41.816 75.69l1.044-.603c-4.883-8.46 5.304-11.801 5.304-11.801zm-12.1 0c.007-9.4 4.892-18.532 13.618-23.57l-4.84-8.382c-17.65 10.19-23.695 32.756-13.505 50.406l1.047-.604c-7.562-13.098 3.68-17.85 3.68-17.85zm34.788 13.11a15.11 15.11 0 0 1-15.121-.01l-4.84 8.383c11.864 6.85 27.03 2.783 33.879-9.08l-1.044-.602c-4.886 8.458-12.874 1.308-12.874 1.308zm6.051 10.478c-8.144 4.692-18.496 5.029-27.221-.01l-4.84 8.383c17.65 10.19 40.217 4.142 50.407-13.507l-1.048-.604c-7.562 13.096-17.298 5.738-17.298 5.738zm-37.51-64.978a47.574 47.574 0 0 1 23.899-6.395c18.434.092 19.667 13.73 19.667 13.73 11.752 6.798 19.653 19.505 19.653 34.059h8.469a47.644 47.644 0 0 1-8.67 27.443 48.091 48.091 0 0 0 1.983-3.074C95.13 103 82.953 97.354 82.953 97.354c-11.763 6.778-26.717 7.266-39.32-.01l-4.239 7.341c-8.266-4.782-14.993-12.03-19.177-20.676.382.791.788 1.562 1.216 2.33-8.27-15.438 2.53-23.052 2.53-23.052.011-13.577 7.066-26.77 19.67-34.048l-4.239-7.341"/></svg>